<?xml version="1.0" encoding="UTF-8"?>
<svg width="313px" height="238px" viewBox="0 0 313 238" version="1.1" xmlns="http://www.w3.org/2000/svg" xmlns:xlink="http://www.w3.org/1999/xlink">
    <!-- Generator: Sketch 39.1 (31720) - http://www.bohemiancoding.com/sketch -->
    <title>sushi-and-chopsticks</title>
    <desc>Created with Sketch.</desc>
    <defs></defs>
    <g id="Page-1" stroke="none" stroke-width="1" fill="none" fill-rule="evenodd">
        <g id="sushi-and-chopsticks" fill="#E33068">
            <path d="M2.453,198.795 C2.391,201.885 4.867,204.443 7.957,204.478 L306.465,207.975 C309.555,208.01 312.121,206.271 312.168,204.107 C312.211,201.943 309.719,200.1 306.629,200.01 L8.234,191.096 C5.145,191.002 2.562,193.455 2.5,196.545 L2.453,198.795 Z" id="Fill-1"></path>
            <g id="Group-5" transform="translate(0.000000, 134.000000)">
                <path d="M239.938,80.689 C243.027,80.725 247.953,81.564 250.883,82.553 L290.902,96.061 C293.832,97.049 295.676,99.541 295.004,101.596 C294.332,103.65 291.367,104.568 288.422,103.635 L220.586,82.1 C217.641,81.166 217.758,80.432 220.848,80.467 L239.938,80.689 Z" id="Fill-2" fill-opacity="0.890370245"></path>
                <path d="M161.992,52.553 C164.922,53.541 164.789,54.275 161.699,54.182 L135.223,53.389 C132.133,53.299 127.191,52.455 124.246,51.521 L3.887,13.318 C0.938,12.381 -0.684,9.213 0.277,6.275 L0.977,4.135 C1.941,1.197 5.121,-0.397 8.051,0.592 L161.992,52.553 Z" id="Fill-4" fill-opacity="0.88782269"></path>
            </g>
            <path d="M146.535,39.393 C149.996,41.35 150.086,44.697 146.734,46.834 L123.316,61.756 C119.961,63.893 114.473,63.893 111.121,61.756 L87.703,46.834 C84.352,44.697 84.441,41.35 87.902,39.393 L110.922,26.396 C114.383,24.439 120.051,24.439 123.516,26.396 L146.535,39.393 Z" id="Fill-6" fill-opacity="0.855921649"></path>
            <path d="M311.363,82.928 C310.465,79.842 308.09,77.057 304.559,75.061 L256.363,47.85 C252.375,45.6 247.129,44.357 241.582,44.357 C236.039,44.357 230.789,45.6 226.805,47.85 L178.672,75.025 C173.328,77.088 169.512,82.287 169.512,88.334 L169.512,140.533 C169.512,149.365 178.5,154.736 179.789,155.557 L228.816,186.799 C235.836,191.271 247.328,191.271 254.352,186.799 L303.375,155.557 C305.418,154.256 306.844,152.74 307.672,151.146 C310.59,148.529 312.438,144.736 312.438,140.533 L312.438,88.334 C312.438,86.424 312.055,84.596 311.363,82.928 L311.363,82.928 Z M229.996,53.498 C232.98,51.814 237.203,50.846 241.582,50.846 C245.961,50.846 250.188,51.814 253.172,53.498 L301.367,80.713 C303.809,82.092 305.23,83.881 305.277,85.619 C305.324,87.361 303.996,89.225 301.633,90.732 L252.605,121.971 C249.766,123.783 245.75,124.818 241.582,124.818 C237.418,124.818 233.398,123.783 230.559,121.971 L181.531,90.732 C179.168,89.225 177.84,87.361 177.887,85.619 C177.934,83.881 179.359,82.092 181.801,80.713 L229.996,53.498 Z" id="Fill-7"></path>
            <path d="M270.898,83.061 C274.363,85.018 274.449,88.365 271.098,90.502 L247.68,105.424 C244.328,107.561 238.84,107.561 235.484,105.424 L212.07,90.502 C208.715,88.365 208.805,85.018 212.266,83.061 L235.285,70.064 C238.75,68.107 244.414,68.107 247.879,70.064 L270.898,83.061 Z" id="Fill-8"></path>
            <path d="M157.703,84.33 C157.703,76.408 162.598,69.154 169.926,66.135 L186.648,56.693 C186.648,56.693 188.07,56.244 188.07,54.295 L188.07,44.666 C188.07,42.752 187.688,40.928 187,39.26 C186.102,36.17 183.727,33.389 180.191,31.393 L131.996,4.178 C128.012,1.928 122.762,0.689 117.219,0.689 C111.676,0.689 106.426,1.928 102.441,4.178 L54.309,31.357 C48.965,33.42 45.148,38.615 45.148,44.666 L45.148,96.865 C45.148,105.494 54.137,111.064 55.426,111.889 L104.453,143.127 C111.473,147.603 122.965,147.603 129.988,143.127 L156.66,126.131 C156.66,126.131 157.703,125.561 157.703,123.693 L157.703,84.33 L157.703,84.33 Z M117.219,81.15 C113.051,81.15 109.035,80.111 106.195,78.303 L57.168,47.061 C54.805,45.557 53.477,43.693 53.523,41.951 C53.57,40.209 54.992,38.42 57.434,37.045 L105.633,9.83 C108.613,8.143 112.84,7.178 117.219,7.178 C121.598,7.178 125.82,8.143 128.805,9.83 L177.004,37.045 C179.441,38.42 180.867,40.209 180.914,41.951 C180.961,43.693 179.633,45.553 177.27,47.061 L128.242,78.299 C125.402,80.111 121.383,81.15 117.219,81.15 L117.219,81.15 Z" id="Fill-9" fill-opacity="0.857280344"></path>
        </g>
    </g>
</svg>